<svg xmlns="http://www.w3.org/2000/svg" width="229.25" height="27.78" viewBox="0 0 229.25 27.78"><title>orise-primary-h-white</title><polygon points="15.69 0.34 8.63 0.34 15 22.28 15.69 0.34" fill="#fff"/><polygon points="9.7 26.13 0 19.54 0 23.31 9.7 26.13" fill="#fff"/><polygon points="11.86 23.52 0.04 0.34 0 0.34 0 11.66 11.86 23.52" fill="#fff"/><polygon points="13.35 22.7 8.35 0.34 0.13 0.34 13.35 22.7" fill="#fff"/><polygon points="9.17 27.75 0 24.45 0 27.46 9.17 27.75" fill="#fff"/><polygon points="10.61 24.69 0 12.65 0 18.41 10.61 24.69" fill="#fff"/><polygon points="19.85 23.52 31.5 11.86 31.5 0.66 19.85 23.52" fill="#fff"/><polygon points="18.36 22.7 31.5 0.46 31.5 0.34 23.36 0.34 18.36 22.7" fill="#fff"/><polygon points="16.02 0.34 16.7 22.28 23.07 0.34 16.02 0.34" fill="#fff"/><polygon points="21.09 24.69 31.5 18.53 31.5 12.88 21.09 24.69" fill="#fff"/><polygon points="22.01 26.13 31.5 23.37 31.5 19.68 22.01 26.13" fill="#fff"/><polygon points="31.5 24.52 22.53 27.75 31.5 27.47 31.5 24.52" fill="#fff"/><path d="M39.6,22.59c0-1.67,0-2,0-2.32s-.09-.54-.46-.59a2.34,2.34,0,0,0-.38,0,.11.11,0,0,1-.09-.09c0-.06.05-.09.18-.09.51,0,1.2,0,1.26,0,.22,0,2.64,0,2.89,0a2,2,0,0,0,.5-.05c.07,0,.12-.06.16-.06s.07.05.07.1-.05.2-.09.5c0,.1,0,.58,0,.71s0,.11-.1.11-.09,0-.09-.12a1.05,1.05,0,0,0-.1-.41.83.83,0,0,0-.76-.31l-1.82,0c-.06,0-.09,0-.09.12V23c0,.06,0,.1.08.1h2c.27,0,.42-.07.52-.19s.1-.12.14-.12.06,0,.06.09a5.4,5.4,0,0,0-.1.6c0,.21,0,.64,0,.72s0,.21-.1.21-.07-.05-.07-.1a1.43,1.43,0,0,0-.08-.39c0-.15-.23-.29-.57-.34s-1.59,0-1.78,0-.08,0-.08.1v.86c0,1.07,0,1.91,0,2.33s.1.52.41.57c.16,0,.4.05.5.05a.08.08,0,0,1,.09.09c0,.05,0,.09-.17.09-.62,0-1.34,0-1.4,0s-.75,0-1.1,0c-.11,0-.17,0-.17-.09a.08.08,0,0,1,.08-.09c.11,0,.25,0,.35-.05s.24-.25.29-.57a23.13,23.13,0,0,0,.06-2.33Z" fill="#fff"/><path d="M49.35,19.32c2.51,0,4.41,1.53,4.41,4a4.32,4.32,0,0,1-4.47,4.39,4.12,4.12,0,0,1-4.35-4.23A4.26,4.26,0,0,1,49.35,19.32Zm.26,8c1,0,3-.53,3-3.64,0-2.58-1.57-3.93-3.33-3.93s-3.2,1.16-3.2,3.5C46.09,25.74,47.6,27.3,49.61,27.3Z" fill="#fff"/><path d="M55.92,22.59c0-1.67,0-2,0-2.32s-.09-.54-.45-.59a2.34,2.34,0,0,0-.38,0,.11.11,0,0,1-.09-.09c0-.06.05-.09.18-.09.5,0,1.25,0,1.31,0l1.39,0a3.72,3.72,0,0,1,2.08.47,1.9,1.9,0,0,1,.77,1.47,3.12,3.12,0,0,1-1.37,2.45C60.24,25,61,26,61.66,26.65a2.05,2.05,0,0,0,1.24.74,1.92,1.92,0,0,0,.39,0,.1.1,0,0,1,.1.09c0,.06-.06.09-.26.09h-.7a2.27,2.27,0,0,1-1.19-.22,5.74,5.74,0,0,1-1.52-1.58c-.46-.58-1-1.28-1.2-1.57a.16.16,0,0,0-.15-.06l-1.42,0c-.05,0-.07,0-.07.09v.26c0,1,0,1.87,0,2.31s.1.52.44.57c.15,0,.39.05.49.05s.09.05.09.09-.05.09-.17.09c-.61,0-1.32,0-1.37,0s-.76,0-1.1,0c-.11,0-.18,0-.18-.09a.09.09,0,0,1,.09-.09,2,2,0,0,0,.34-.05c.22-.05.24-.25.29-.57a19.84,19.84,0,0,0,.07-2.33Zm1,.91a.16.16,0,0,0,.07.14,4.13,4.13,0,0,0,1.23.16,1.44,1.44,0,0,0,.84-.19A1.91,1.91,0,0,0,59.69,22a1.86,1.86,0,0,0-1.93-2.12,4.08,4.08,0,0,0-.79.07.13.13,0,0,0-.09.12Z" fill="#fff"/><path d="M67.68,27.44c-.18-.09-.19-.14-.19-.48,0-.63.05-1.14.06-1.34s0-.2.1-.2.09,0,.09.14a2.16,2.16,0,0,0,0,.47,1.72,1.72,0,0,0,1.87,1.29,1.69,1.69,0,0,0,1.81-1.69c0-.87-.37-1.37-1.45-2.27l-.57-.47c-1.34-1.1-1.65-1.89-1.65-2.75,0-1.35,1-2.27,2.62-2.27a5.36,5.36,0,0,1,1.18.12,2.28,2.28,0,0,0,.44.07c.1,0,.13,0,.13.09s0,.48,0,1.34c0,.2,0,.29-.09.29s-.09-.07-.1-.17a2.36,2.36,0,0,0-.17-.63c-.07-.14-.42-.67-1.58-.67a1.44,1.44,0,0,0-1.56,1.47c0,.72.33,1.17,1.55,2.12l.35.28c1.5,1.18,1.85,2,1.85,3a2.61,2.61,0,0,1-1.08,2.1,3.3,3.3,0,0,1-1.91.53A3.74,3.74,0,0,1,67.68,27.44Z" fill="#fff"/><path d="M75.33,26.6A4,4,0,0,1,74,23.41a4.24,4.24,0,0,1,1.25-2.94,4.61,4.61,0,0,1,3.39-1.15,10.86,10.86,0,0,1,1.62.13,8.42,8.42,0,0,0,1.14.16c.11,0,.14.05.14.12s0,.21,0,.6,0,1,0,1.1-.06.23-.13.23-.08-.07-.08-.23a1.41,1.41,0,0,0-.47-1.07,3.63,3.63,0,0,0-2.19-.6,3.44,3.44,0,0,0-2.51.75,3.52,3.52,0,0,0-1,2.81,3.92,3.92,0,0,0,4,3.9,2.37,2.37,0,0,0,1.84-.51,2,2,0,0,0,.43-.9c0-.11,0-.15.11-.15s.1.08.1.15a11.77,11.77,0,0,1-.26,1.38c-.06.2-.09.24-.28.32a6.83,6.83,0,0,1-2,.24A5.29,5.29,0,0,1,75.33,26.6Z" fill="#fff"/><path d="M85,24.48a23.13,23.13,0,0,0,.06,2.33c0,.32.07.52.4.57.16,0,.4.05.51.05a.08.08,0,0,1,.08.09c0,.05,0,.09-.17.09-.62,0-1.34,0-1.39,0s-.76,0-1.1,0q-.18,0-.18-.09a.08.08,0,0,1,.09-.09,2,2,0,0,0,.34-.05c.21-.05.25-.25.29-.57s.06-1.29.06-2.33V22.59c0-1.67,0-2,0-2.32s-.12-.53-.36-.58a1.55,1.55,0,0,0-.34,0,.1.1,0,0,1-.09-.09c0-.06,0-.09.18-.09l1.13,0,1.11,0c.13,0,.18,0,.18.09a.11.11,0,0,1-.09.09,1.06,1.06,0,0,0-.28,0c-.3.06-.37.21-.39.59s0,.65,0,2.32Z" fill="#fff"/><path d="M88.54,22.59c0-1.67,0-2,0-2.32s-.09-.54-.45-.59a2.34,2.34,0,0,0-.38,0,.11.11,0,0,1-.09-.09c0-.06,0-.09.17-.09.51,0,1.23,0,1.29,0s2.41,0,2.66,0,.42-.05.51-.06a.44.44,0,0,1,.15-.05s0,.05,0,.1-.06.2-.09.5c0,.1,0,.58-.06.71s0,.11-.1.11-.09,0-.09-.13A1,1,0,0,0,92,20.3c-.07-.18-.19-.26-.79-.33-.19,0-1.48,0-1.61,0s-.06,0-.06.11V23c0,.08,0,.12.06.12s1.61,0,1.86,0,.43,0,.54-.15.13-.14.17-.14.06,0,.06.09-.06.24-.09.6-.05.62-.05.69,0,.2-.1.2-.07,0-.07-.1a.8.8,0,0,0-.06-.35c0-.15-.13-.28-.56-.33s-1.5,0-1.69,0a.06.06,0,0,0-.07.07v.9c0,.37,0,1.62,0,1.84,0,.72.23.86,1.33.86A3.5,3.5,0,0,0,92,27.06a.79.79,0,0,0,.5-.74c0-.13.06-.17.12-.17s.07.09.07.17a7.49,7.49,0,0,1-.15,1c-.07.28-.19.28-.62.28-.83,0-1.48,0-1.93,0l-.93,0h-.48l-.64,0q-.18,0-.18-.09a.09.09,0,0,1,.09-.09c.1,0,.24,0,.34-.05s.24-.25.29-.57a19.84,19.84,0,0,0,.07-2.33Z" fill="#fff"/><path d="M95.81,26.14c0,.89.13,1.15.43,1.23a2.58,2.58,0,0,0,.55.06.08.08,0,0,1,.09.09c0,.06-.07.09-.2.09-.63,0-1.07,0-1.18,0s-.56,0-1.07,0c-.11,0-.18,0-.18-.09a.09.09,0,0,1,.09-.09,1.8,1.8,0,0,0,.46-.06c.27-.08.31-.37.31-1.34V19.87c0-.43.07-.55.15-.55s.32.22.43.33,1.8,1.9,3.52,3.67c1.1,1.14,2.29,2.42,2.63,2.77l-.11-5.39c0-.7-.08-.94-.42-1a3.23,3.23,0,0,0-.54-.05c-.08,0-.09-.06-.09-.1s.09-.08.21-.08c.51,0,1,0,1.17,0s.49,0,1,0c.11,0,.2,0,.2.08a.12.12,0,0,1-.13.1,1,1,0,0,0-.26,0c-.37.07-.4.29-.4.93l0,6.3c0,.71,0,.77-.09.77s-.23-.09-.85-.65c-.11-.11-1.72-1.69-2.89-2.91S96,21.45,95.68,21.07Z" fill="#fff"/><path d="M105.62,26.6a4,4,0,0,1-1.35-3.19,4.24,4.24,0,0,1,1.25-2.94,4.61,4.61,0,0,1,3.39-1.15,10.76,10.76,0,0,1,1.62.13,8.42,8.42,0,0,0,1.14.16c.11,0,.14.05.14.12s0,.21,0,.6,0,1,0,1.1-.06.23-.12.23-.09-.07-.09-.23a1.41,1.41,0,0,0-.47-1.07,3.6,3.6,0,0,0-2.19-.6,3.39,3.39,0,0,0-2.5.75,3.49,3.49,0,0,0-1,2.81,3.91,3.91,0,0,0,4,3.9,2.35,2.35,0,0,0,1.83-.51,2,2,0,0,0,.43-.9c0-.11,0-.15.11-.15s.11.08.11.15a12.28,12.28,0,0,1-.27,1.38c-.06.2-.09.24-.28.32a6.78,6.78,0,0,1-2,.24A5.29,5.29,0,0,1,105.62,26.6Z" fill="#fff"/><path d="M114.32,22.59c0-1.67,0-2,0-2.32s-.09-.54-.46-.59a2.25,2.25,0,0,0-.38,0,.12.12,0,0,1-.09-.09q0-.09.18-.09c.51,0,1.23,0,1.29,0s2.41,0,2.66,0,.42-.05.5-.06a.58.58,0,0,1,.16-.05s0,.05,0,.1a3.62,3.62,0,0,0-.09.5c0,.1,0,.58-.06.71s-.06.11-.11.11-.08,0-.08-.13a1.18,1.18,0,0,0-.07-.38c-.07-.18-.19-.26-.79-.33-.19,0-1.48,0-1.61,0s-.06,0-.06.11V23c0,.08,0,.12.06.12s1.61,0,1.86,0,.43,0,.54-.15.13-.14.17-.14.06,0,.06.09-.06.24-.09.6,0,.62,0,.69,0,.2-.1.2-.08,0-.08-.1a1,1,0,0,0,0-.35c0-.15-.14-.28-.57-.33s-1.49,0-1.68,0a.06.06,0,0,0-.07.07v.9c0,.37,0,1.62,0,1.84,0,.72.22.86,1.32.86a3.57,3.57,0,0,0,1.12-.12.79.79,0,0,0,.5-.74c0-.13,0-.17.12-.17s.07.09.07.17a9.45,9.45,0,0,1-.15,1c-.08.28-.19.28-.62.28-.83,0-1.48,0-1.93,0l-.93,0h-.48l-.64,0q-.18,0-.18-.09a.09.09,0,0,1,.09-.09c.1,0,.24,0,.34-.05s.24-.25.29-.57a23.13,23.13,0,0,0,.06-2.33Z" fill="#fff"/><path d="M126.77,19.69c.14-.36.19-.42.26-.42s.16.15.27.39c.2.46,2,4.9,2.67,6.53.4,1,.71,1.1.95,1.18a1.53,1.53,0,0,0,.44.06c.06,0,.14,0,.14.09s-.13.09-.25.09-1,0-1.76,0c-.22,0-.39,0-.39-.07s0-.05.07-.08a.19.19,0,0,0,.1-.29l-1-2.47c0-.05,0-.06-.11-.06h-2.56a.12.12,0,0,0-.12.09l-.63,1.72a2.2,2.2,0,0,0-.16.72c0,.21.18.29.37.29h.11c.08,0,.11,0,.11.09s-.06.09-.16.09c-.27,0-.88,0-1,0s-.67,0-1.13,0c-.14,0-.22,0-.22-.09s.06-.09.11-.09a2,2,0,0,0,.33,0c.5-.06.72-.44.93-1ZM128,24.17c.05,0,.05,0,0-.08L127,21.14c-.07-.16-.13-.16-.19,0l-1,2.95c0,.05,0,.08,0,.08Z" fill="#fff"/><path d="M133.27,26.14c0,.89.13,1.15.43,1.23a2.66,2.66,0,0,0,.56.06.09.09,0,0,1,.09.09c0,.06-.08.09-.21.09-.63,0-1.07,0-1.17,0s-.57,0-1.08,0c-.11,0-.18,0-.18-.09a.09.09,0,0,1,.09-.09,1.8,1.8,0,0,0,.46-.06c.28-.08.31-.37.31-1.34V19.87c0-.43.07-.55.16-.55s.31.22.43.33,1.79,1.9,3.51,3.67c1.1,1.14,2.29,2.42,2.63,2.77l-.11-5.39c0-.7-.08-.94-.42-1a3.23,3.23,0,0,0-.54-.05c-.08,0-.09-.06-.09-.1s.09-.08.22-.08c.5,0,1,0,1.16,0s.49,0,.95,0c.11,0,.2,0,.2.08a.12.12,0,0,1-.13.1,1,1,0,0,0-.26,0c-.37.07-.39.29-.39.93l0,6.3c0,.71,0,.77-.09.77s-.23-.09-.85-.65c-.11-.11-1.72-1.69-2.89-2.91s-2.54-2.67-2.89-3.05Z" fill="#fff"/><path d="M142.92,22.59c0-1.67,0-2,0-2.32s-.09-.54-.46-.59a2.34,2.34,0,0,0-.38,0,.11.11,0,0,1-.09-.09c0-.06.05-.09.18-.09.5,0,1.23,0,1.29,0s.83,0,1.49,0c1.11,0,3.15-.1,4.47,1.23a3.82,3.82,0,0,1,1.09,2.73,4.33,4.33,0,0,1-1.21,3,4.47,4.47,0,0,1-3.37,1.24c-.49,0-1.08,0-1.56-.07l-.91-.06H143l-.67,0c-.11,0-.17,0-.17-.09a.08.08,0,0,1,.08-.09,2.11,2.11,0,0,0,.35-.05c.21-.05.24-.25.29-.57a23.13,23.13,0,0,0,.06-2.33Zm1,1.16c0,1.14,0,2.14,0,2.34a2,2,0,0,0,.12.77c.14.2.53.43,1.85.43a3.73,3.73,0,0,0,2.6-1,3.6,3.6,0,0,0,.88-2.56,3.74,3.74,0,0,0-1.05-2.69,4.58,4.58,0,0,0-3.61-1.2,2.92,2.92,0,0,0-.67.07.2.2,0,0,0-.14.22Z" fill="#fff"/><path d="M157.23,21.71c0-2,0-2.32,0-2.73s-.13-.63-.54-.72a2.09,2.09,0,0,0-.43,0s-.11,0-.11-.07.07-.11.21-.11.63,0,.91,0l.52,0h2.89a3.92,3.92,0,0,0,.55-.06c.06,0,.11-.07.17-.07s0,0,0,.12-.06.24-.1.59c0,.13,0,.68-.06.84s0,.14-.09.14-.1-.07-.1-.17A1.19,1.19,0,0,0,161,19c-.08-.21-.21-.36-.89-.43-.22,0-1.6,0-1.74,0s-.07,0-.07.12v3.5c0,.08,0,.12.07.12s1.72,0,2,0,.49-.05.6-.18.14-.16.19-.16.06,0,.06.1-.06.29-.1.7-.05.73-.05.81,0,.24-.09.24-.09-.05-.09-.11a1.33,1.33,0,0,0,0-.42c-.05-.17-.16-.39-.65-.44s-1.6-.06-1.81-.06a.08.08,0,0,0-.09.09v1.11c0,.43,0,1.9,0,2.16,0,.87.23,1,1.46,1A3.64,3.64,0,0,0,161,27c.33-.14.48-.39.57-.91,0-.14.05-.19.11-.19s.08.1.08.19a11,11,0,0,1-.17,1.23c-.08.33-.19.33-.68.33-.95,0-1.64,0-2.14,0s-.79,0-1,0h-.51c-.25,0-.54,0-.73,0s-.21,0-.21-.1,0-.08.11-.08a2.35,2.35,0,0,0,.37-.05c.26-.05.32-.33.37-.7.07-.53.07-1.53.07-2.74Z" fill="#fff"/><path d="M164.49,22.59c0-1.67,0-2,0-2.32s-.09-.54-.46-.59a2.17,2.17,0,0,0-.38,0,.11.11,0,0,1-.08-.09c0-.06.05-.09.17-.09.51,0,1.23,0,1.29,0s.84,0,1.5,0c1.11,0,3.15-.1,4.46,1.23a3.78,3.78,0,0,1,1.09,2.73,4.32,4.32,0,0,1-1.2,3,4.48,4.48,0,0,1-3.38,1.24c-.48,0-1.07,0-1.56-.07l-.91-.06h-.45l-.67,0q-.18,0-.18-.09a.09.09,0,0,1,.09-.09,2,2,0,0,0,.34-.05c.22-.05.24-.25.29-.57a19.84,19.84,0,0,0,.07-2.33Zm1,1.16c0,1.14,0,2.14,0,2.34a1.94,1.94,0,0,0,.13.77c.14.2.53.43,1.84.43a3.74,3.74,0,0,0,2.61-1,3.64,3.64,0,0,0,.87-2.56,3.7,3.7,0,0,0-1.05-2.69,4.57,4.57,0,0,0-3.6-1.2,2.86,2.86,0,0,0-.67.07c-.11,0-.14.09-.14.22Z" fill="#fff"/><path d="M174,22.59c0-1.67,0-2,0-2.32s-.09-.54-.46-.59a2.34,2.34,0,0,0-.38,0,.11.11,0,0,1-.09-.09c0-.06.05-.09.18-.09.51,0,1.18,0,1.28,0l1.12,0c.13,0,.19,0,.19.09a.11.11,0,0,1-.1.09,1,1,0,0,0-.27,0c-.3.05-.36.24-.38.59s0,.65,0,2.32v1.5c0,1.56.34,2.2.82,2.63a2.16,2.16,0,0,0,1.66.58,2.27,2.27,0,0,0,1.72-.76,3.94,3.94,0,0,0,.63-2.6V22.59c0-1.67,0-2,0-2.32s-.08-.54-.45-.59a2.17,2.17,0,0,0-.38,0,.09.09,0,0,1-.08-.09c0-.06.05-.09.17-.09.5,0,1.14,0,1.2,0s.61,0,.94,0c.13,0,.18,0,.18.09a.1.1,0,0,1-.09.09,1.1,1.1,0,0,0-.28,0c-.3.06-.37.24-.39.59s0,.65,0,2.32v1.15a4.12,4.12,0,0,1-1,3.22,3.36,3.36,0,0,1-2.33.79A3.47,3.47,0,0,1,175,27a3.46,3.46,0,0,1-1-2.82Z" fill="#fff"/><path d="M183.73,26.6a4.07,4.07,0,0,1-1.35-3.19,4.28,4.28,0,0,1,1.25-2.94A4.63,4.63,0,0,1,187,19.32a10.66,10.66,0,0,1,1.62.13,8.42,8.42,0,0,0,1.14.16c.12,0,.14.05.14.12s0,.21,0,.6,0,1,0,1.1-.06.23-.12.23-.09-.07-.09-.23a1.41,1.41,0,0,0-.47-1.07,3.6,3.6,0,0,0-2.19-.6,3.39,3.39,0,0,0-2.5.75,3.52,3.52,0,0,0-1,2.81,3.91,3.91,0,0,0,4,3.9,2.35,2.35,0,0,0,1.83-.51,2,2,0,0,0,.43-.9c0-.11,0-.15.12-.15s.1.08.1.15a10.34,10.34,0,0,1-.27,1.38c-.06.2-.09.24-.28.32a6.78,6.78,0,0,1-2,.24A5.31,5.31,0,0,1,183.73,26.6Z" fill="#fff"/><path d="M194.13,19.69c.14-.36.19-.42.27-.42s.15.15.26.39c.21.46,2,4.9,2.67,6.53.41,1,.71,1.1.95,1.18a1.57,1.57,0,0,0,.44.06c.07,0,.14,0,.14.09s-.12.09-.25.09-1,0-1.76,0c-.21,0-.39,0-.39-.07s0-.05.08-.08a.21.21,0,0,0,.1-.29l-1-2.47c0-.05,0-.06-.1-.06H193a.12.12,0,0,0-.12.09l-.63,1.72a2.2,2.2,0,0,0-.16.72c0,.21.19.29.38.29h.1c.09,0,.11,0,.11.09s-.06.09-.16.09c-.27,0-.88,0-1,0s-.67,0-1.13,0q-.21,0-.21-.09a.1.1,0,0,1,.1-.09,2,2,0,0,0,.33,0c.5-.06.72-.44.93-1Zm1.24,4.48s0,0,0-.08l-1.1-2.95c-.06-.16-.13-.16-.19,0l-1,2.95c0,.05,0,.08,0,.08Z" fill="#fff"/><path d="M201.78,24.48a23.13,23.13,0,0,0,.06,2.33c0,.32.08.52.43.57.15,0,.4.05.5.05s.09.05.09.09-.05.09-.18.09c-.6,0-1.31,0-1.38,0s-.82,0-1.15,0c-.12,0-.17,0-.17-.09a.07.07,0,0,1,.08-.08,1.2,1.2,0,0,0,.33-.05c.23-.05.29-.26.33-.58s.05-1.29.05-2.33V20l-1.6,0c-.7,0-1,.09-1.13.34a1.62,1.62,0,0,0-.18.35c0,.08-.06.1-.11.1a.09.09,0,0,1-.08-.09c0-.12.22-1.08.24-1.17s.08-.2.12-.2a3.72,3.72,0,0,0,.49.13,8.63,8.63,0,0,0,.87.05h4.2a6.53,6.53,0,0,0,.8-.05l.32-.05s0,.06,0,.12c0,.33,0,1.1,0,1.23s-.05.14-.1.14-.08,0-.09-.19v-.11c0-.33-.28-.57-1.34-.6l-1.4,0Z" fill="#fff"/><path d="M207.92,24.48c0,1,0,1.89.05,2.33s.08.52.4.57l.51.05a.09.09,0,0,1,.09.09c0,.05-.05.09-.18.09-.62,0-1.34,0-1.39,0s-.76,0-1.1,0c-.11,0-.18,0-.18-.09a.09.09,0,0,1,.09-.09,2,2,0,0,0,.34-.05c.22-.05.26-.25.29-.57s.07-1.29.07-2.33V22.59c0-1.67,0-2,0-2.32s-.11-.53-.35-.58a1.69,1.69,0,0,0-.34,0,.1.1,0,0,1-.09-.09c0-.06.05-.09.17-.09l1.13,0,1.11,0c.13,0,.18,0,.18.09a.11.11,0,0,1-.09.09,1.1,1.1,0,0,0-.28,0c-.3.06-.36.21-.39.59s0,.65,0,2.32Z" fill="#fff"/><path d="M214.63,19.32c2.51,0,4.41,1.53,4.41,4a4.32,4.32,0,0,1-4.47,4.39,4.12,4.12,0,0,1-4.35-4.23A4.26,4.26,0,0,1,214.63,19.32Zm.26,8c1,0,3-.53,3-3.64,0-2.58-1.57-3.93-3.33-3.93s-3.2,1.16-3.2,3.5C211.37,25.74,212.88,27.3,214.89,27.3Z" fill="#fff"/><path d="M221.67,26.14c0,.89.12,1.15.43,1.23a2.58,2.58,0,0,0,.55.06.09.09,0,0,1,.09.09c0,.06-.07.09-.2.09-.63,0-1.08,0-1.18,0s-.57,0-1.07,0c-.12,0-.18,0-.18-.09a.09.09,0,0,1,.09-.09,1.69,1.69,0,0,0,.45-.06c.28-.08.32-.37.32-1.34V19.87c0-.43.06-.55.15-.55s.32.22.43.33,1.8,1.9,3.52,3.67c1.1,1.14,2.29,2.42,2.63,2.77l-.11-5.39c0-.7-.08-.94-.42-1a3.31,3.31,0,0,0-.54-.05c-.08,0-.09-.06-.09-.1s.09-.08.21-.08c.51,0,1,0,1.17,0s.49,0,.94,0c.12,0,.21,0,.21.08a.12.12,0,0,1-.13.1,1.12,1.12,0,0,0-.27,0c-.36.07-.39.29-.39.93l0,6.3c0,.71,0,.77-.09.77s-.23-.09-.85-.65c-.11-.11-1.72-1.69-2.9-2.91s-2.54-2.67-2.88-3.05Z" fill="#fff"/><path d="M37.77,6.54C37.77,3.69,39.66,0,44.66,0c4.16,0,6.75,2.42,6.75,6.24a6.6,6.6,0,0,1-6.91,6.85A6.36,6.36,0,0,1,37.77,6.54Zm11.3.32C49.07,3.12,46.92.8,44.18.8,42.26.8,40.07,1.87,40.07,6c0,3.47,1.92,6.22,5.13,6.22C46.37,12.25,49.07,11.69,49.07,6.86Z" fill="#fff"/><path d="M55.3,9.26c-.08,0-.1,0-.13.1l-.79,1.92a2.62,2.62,0,0,0-.21.87c0,.25.13.4.58.4H55c.18,0,.21.07.21.15s-.08.15-.23.15c-.48,0-1.17,0-1.63,0-.16,0-.94,0-1.71,0-.18,0-.26,0-.26-.15a.14.14,0,0,1,.16-.15H52c.66-.1.91-.54,1.21-1.26L57,2.42c.17-.4.29-.57.44-.57s.28.14.43.45c.35.79,2.81,6.53,3.74,8.68.57,1.29,1,1.47,1.25,1.52a2.94,2.94,0,0,0,.55.05c.14,0,.2,0,.2.15s-.08.15-.63.15-1.59,0-2.82,0c-.27,0-.43,0-.43-.12s0-.13.18-.15a.21.21,0,0,0,.13-.31L58.91,9.36a.15.15,0,0,0-.15-.1Zm3.14-.78c.07,0,.08,0,.07-.08L57.12,4.84s0-.13-.07-.13-.06.08-.08.13L55.55,8.38c0,.07,0,.1.05.1Z" fill="#fff"/><path d="M67.07,6.86h.07c.5-.53,2.64-2.64,3.07-3.12s.74-.8.74-1.05a.27.27,0,0,0-.21-.29c-.13,0-.2-.06-.2-.15s.09-.13.24-.13l1.52,0,1.72,0c.15,0,.25,0,.25.13s-.09.15-.22.15a2.84,2.84,0,0,0-.85.17,4.44,4.44,0,0,0-1.55,1.05c-.47.44-2.66,2.51-3.11,3,.52.67,3.41,3.68,4,4.21a7.26,7.26,0,0,0,2,1.52,2.14,2.14,0,0,0,.9.18c.12,0,.2.07.2.15s-.08.15-.35.15H74c-.43,0-.7,0-1,0a3.1,3.1,0,0,1-1.9-.92c-.63-.55-3.45-3.82-3.77-4.25l-.15-.2h-.07V8.73c0,1.3,0,2.42,0,3,0,.4.16.67.53.73a4.43,4.43,0,0,0,.72.05.2.2,0,0,1,.2.15c0,.1-.12.15-.29.15-.81,0-1.87,0-2.23,0s-1.27,0-1.86,0c-.18,0-.28,0-.28-.15s.05-.15.23-.15a1.86,1.86,0,0,0,.52-.05c.3-.06.39-.33.44-.75.06-.6.06-1.72.06-3V6.23c0-2.16,0-2.56,0-3s-.17-.63-.64-.77a3,3,0,0,0-.58-.05c-.15,0-.25,0-.25-.15s.11-.13.33-.13c.77,0,1.7,0,2,0l1.89,0c.22,0,.32,0,.32.13s-.09.15-.2.15a2.27,2.27,0,0,0-.42.05c-.4.07-.52.27-.55.77s0,.85,0,3Z" fill="#fff"/><path d="M81.8,5.07c0-2.53,0-3,0-3.53s-.17-.84-.72-1a3.82,3.82,0,0,0-.65,0c-.19,0-.29,0-.29-.15s.12-.15.37-.15c.88,0,1.94.05,2.29.05.56,0,1.83-.05,2.35-.05A5.32,5.32,0,0,1,88.19,1a2.9,2.9,0,0,1,1.14,2.29c0,1.23-.52,2.37-2.21,3.74,1.49,1.87,2.64,3.35,3.63,4.39a3.28,3.28,0,0,0,1.87,1.13,2.07,2.07,0,0,0,.46.05c.14,0,.2,0,.2.14s-.11.16-.31.16H91.38a3.49,3.49,0,0,1-1.79-.31,8.14,8.14,0,0,1-2.28-2.46c-.67-.92-1.44-2.05-1.66-2.3a.34.34,0,0,0-.3-.12l-1.45,0c-.08,0-.13,0-.13.13V8c0,1.55,0,2.87.08,3.57.05.48.15.85.65.92.25,0,.62.06.82.06s.2,0,.2.14-.12.16-.33.16c-1,0-2.21,0-2.46,0s-1.37,0-2,0c-.22,0-.34,0-.34-.16s.07-.14.27-.14a3,3,0,0,0,.6-.06c.34-.07.42-.44.49-.92.08-.7.08-2,.08-3.56Zm2,1.32c0,.19,0,.25.15.3a4.29,4.29,0,0,0,1.27.17,1.69,1.69,0,0,0,1.18-.28,3,3,0,0,0,1-2.51C87.36,1.7,85.79,1,84.8,1a4.44,4.44,0,0,0-.88.06c-.12,0-.15.11-.15.24Z" fill="#fff"/><path d="M94,6.23c0-2.16,0-2.56,0-3s-.19-.65-.5-.75A1.9,1.9,0,0,0,93,2.4c-.15,0-.23,0-.23-.16s.12-.12.35-.12l2,0,1.89,0c.18,0,.3,0,.3.12s-.09.16-.24.16a2.27,2.27,0,0,0-.43.05c-.4.07-.52.27-.55.77s0,.85,0,3v2.5c0,1.37,0,2.5.06,3.11,0,.38.15.6.59.66a4.57,4.57,0,0,0,.75.05c.16,0,.23.09.23.15s-.12.15-.28.15c-1,0-2,0-2.37,0s-1.34,0-1.92,0c-.19,0-.29,0-.29-.15s0-.15.24-.15a1.82,1.82,0,0,0,.51-.05c.3-.06.39-.26.44-.68.07-.59.07-1.72.07-3.09Z" fill="#fff"/><path d="M100.73,6.23c0-2.16,0-2.56,0-3s-.17-.63-.64-.77a2.82,2.82,0,0,0-.58-.05c-.15,0-.25,0-.25-.15s.12-.13.33-.13c.77,0,1.71,0,2.12,0s1.5,0,2.39,0c1.84,0,4.31,0,5.91,1.62a5,5,0,0,1,1.38,3.61,5.48,5.48,0,0,1-1.6,4A6.84,6.84,0,0,1,104.86,13c-.54,0-1.17-.05-1.75-.08s-1.12-.09-1.49-.09l-.84,0-1,0c-.19,0-.29,0-.29-.15s0-.15.24-.15a1.82,1.82,0,0,0,.51-.05c.3-.06.39-.33.44-.75.06-.6.06-1.72.06-3Zm2,1.57c0,1.5,0,2.58,0,2.87a2.6,2.6,0,0,0,.16,1c.19.27.77.57,1.92.57a4.67,4.67,0,0,0,3.21-1,4.35,4.35,0,0,0,1.25-3.52,4.6,4.6,0,0,0-1.37-3.54,5.88,5.88,0,0,0-4.1-1.36,3.47,3.47,0,0,0-.91.1c-.13,0-.18.12-.18.29,0,.48,0,1.65,0,2.77Z" fill="#fff"/><path d="M123.51,11.9c0,.39,0,.4-.19.5a8.72,8.72,0,0,1-3.59.64c-3.6,0-6.79-1.64-6.79-5.56a5.25,5.25,0,0,1,2.57-4.64,7.34,7.34,0,0,1,4-.92,17.69,17.69,0,0,1,2.6.23,10.08,10.08,0,0,0,1.17.15c.17,0,.2.07.2.17a19.36,19.36,0,0,0-.1,2.34c0,.21-.08.31-.2.31s-.13-.06-.15-.18a1.89,1.89,0,0,0-.5-1.17,4.58,4.58,0,0,0-3.19-1.08,4.11,4.11,0,0,0-2.84.83A4.13,4.13,0,0,0,115.11,7a4.92,4.92,0,0,0,5.11,5.27,2.39,2.39,0,0,0,1-.15.47.47,0,0,0,.29-.5V10.3c0-.7,0-1.24,0-1.67s-.17-.63-.63-.77a2.94,2.94,0,0,0-.57-.05c-.14,0-.24-.06-.24-.15s.12-.13.32-.13c.77,0,1.82,0,2.25,0l1.72,0c.2,0,.3,0,.3.13a.16.16,0,0,1-.18.15,2.28,2.28,0,0,0-.4.05c-.4.07-.55.27-.57.77s0,1,0,1.7Z" fill="#fff"/><path d="M127.55,6.23c0-2.16,0-2.56,0-3s-.17-.63-.63-.77a3,3,0,0,0-.59-.05c-.15,0-.25,0-.25-.15s.12-.13.34-.13c.76,0,1.7,0,2.12,0s3.72,0,4,0a4.34,4.34,0,0,0,.62-.08,1.44,1.44,0,0,1,.23-.07c.09,0,.11.07.11.14a5.33,5.33,0,0,0-.12.91c0,.16-.05.77-.08.94s-.06.23-.17.23S133,4.16,133,4a1.42,1.42,0,0,0-.1-.52c-.12-.25-.23-.45-1-.52-.25,0-2-.06-2.3-.06-.07,0-.1.05-.1.13V6.58c0,.08,0,.15.1.15.33,0,2.24,0,2.57,0a1.16,1.16,0,0,0,.7-.21c.12-.1.17-.19.23-.19a.14.14,0,0,1,.12.15c0,.09,0,.32-.12,1,0,.28-.06.85-.06.95s0,.32-.15.32-.14-.05-.14-.12a3.49,3.49,0,0,0-.05-.52c-.08-.28-.26-.5-.81-.55-.27,0-1.94-.06-2.31-.06-.06,0-.08.06-.08.15V8.78c0,.48,0,1.69,0,2.1,0,1,.48,1.19,2,1.19a4.1,4.1,0,0,0,1.38-.18c.37-.17.54-.47.64-1.06,0-.15.06-.21.16-.21s.14.18.14.33a9.91,9.91,0,0,1-.2,1.57c-.1.37-.24.37-.79.37-1.1,0-2,0-2.7-.05s-1.27,0-1.71,0l-.83,0-1,0c-.18,0-.28,0-.28-.15s0-.15.23-.15a1.9,1.9,0,0,0,.52-.05c.3-.06.38-.33.43-.75.07-.6.07-1.72.07-3Z" fill="#fff"/><path d="M142.37,5.07c0-2.53,0-3,0-3.53s-.2-.86-.57-.94a2.35,2.35,0,0,0-.6-.07c-.16,0-.26,0-.26-.16s.13-.14.4-.14c.63,0,1.68.05,2.17.05s1.4-.05,2-.05c.22,0,.35,0,.35.14s-.1.16-.26.16a3.13,3.13,0,0,0-.5,0c-.45.09-.59.37-.62,1s0,1,0,3.53V8c0,1.62,0,2.94.06,3.66.05.45.17.75.67.82a7.73,7.73,0,0,0,.85.06c.18,0,.27,0,.27.14s-.14.16-.32.16c-1.1,0-2.15,0-2.6,0s-1.44,0-2.11,0c-.21,0-.33,0-.33-.16s.07-.14.27-.14a3,3,0,0,0,.6-.06c.33-.07.43-.35.48-.84.08-.7.08-2,.08-3.64Z" fill="#fff"/><path d="M150.11,10.92c0,1.1.21,1.43.5,1.53a2.28,2.28,0,0,0,.76.1c.17,0,.25.07.25.15s-.13.15-.33.15c-.95,0-1.64,0-1.9,0s-.84,0-1.59,0c-.2,0-.33,0-.33-.15s.1-.15.23-.15a3,3,0,0,0,.67-.06c.38-.1.43-.49.45-1.72L149,2.35c0-.28.1-.48.25-.48s.39.22.64.47,2.39,2.43,4.52,4.52c1,1,3,3,3.17,3.19h.07l-.15-6.31c0-.87-.15-1.12-.5-1.25a2.32,2.32,0,0,0-.77-.09c-.18,0-.23-.06-.23-.15s.15-.13.37-.13c.76,0,1.55,0,1.87,0,.16,0,.71,0,1.43,0,.2,0,.33,0,.33.13s-.08.15-.25.15a1.51,1.51,0,0,0-.45.05c-.4.12-.51.37-.53,1.17l-.17,9c0,.32-.11.45-.23.45a.87.87,0,0,1-.6-.3c-.92-.85-2.76-2.6-4.29-4.09S150.27,5.38,150,5.12h-.05Z" fill="#fff"/><path d="M162.36,12.67c-.23-.1-.28-.17-.28-.48,0-.77.06-1.66.08-1.89s.07-.37.18-.37.15.14.15.24a2.44,2.44,0,0,0,.14.73A2.28,2.28,0,0,0,165,12.3a1.84,1.84,0,0,0,2-1.8c0-.62-.15-1.24-1.45-2L164.7,8c-1.74-1-2.31-2-2.31-3.23,0-1.73,1.67-2.85,3.71-2.85a8.86,8.86,0,0,1,2.09.23c.13,0,.2.09.2.19s0,.58,0,1.7c0,.3-.07.45-.19.45s-.15-.08-.15-.25a1.55,1.55,0,0,0-.38-.93A2,2,0,0,0,166,2.64c-1,0-2,.55-2,1.52,0,.63.23,1.13,1.55,1.87l.6.33c1.94,1.07,2.54,2.15,2.54,3.44a3,3,0,0,1-1.47,2.65,4.29,4.29,0,0,1-2.45.59A6.35,6.35,0,0,1,162.36,12.67Z" fill="#fff"/><path d="M174.07,3l-2.19,0c-.85,0-1.2.12-1.42.43a1.59,1.59,0,0,0-.25.49c0,.11-.07.18-.17.18s-.13-.08-.13-.23a16.14,16.14,0,0,1,.32-1.72c0-.19.08-.27.16-.27s.27.12.64.17a13.77,13.77,0,0,0,1.47.06h6a7.32,7.32,0,0,0,1-.06l.4-.07c.1,0,.12.08.12.3s0,1.35,0,1.72c0,.15-.05.23-.13.23s-.15-.06-.17-.28l0-.15c0-.37-.41-.8-1.73-.82L176,3V8.73c0,1.3,0,2.42.08,3,0,.4.13.67.57.73a4.57,4.57,0,0,0,.75.05c.16,0,.23.09.23.15s-.12.15-.28.15c-1,0-2,0-2.37,0s-1.34,0-1.92,0c-.19,0-.29,0-.29-.15s.05-.15.24-.15a1.86,1.86,0,0,0,.52-.05c.29-.06.38-.33.43-.75.07-.6.07-1.72.07-3Z" fill="#fff"/><path d="M182.61,6.23c0-2.16,0-2.56,0-3s-.19-.65-.5-.75a1.9,1.9,0,0,0-.54-.07c-.15,0-.23,0-.23-.16s.12-.12.35-.12l2,0,1.89,0c.18,0,.3,0,.3.12s-.09.16-.24.16a2.27,2.27,0,0,0-.43.05c-.4.07-.52.27-.55.77s0,.85,0,3v2.5c0,1.37,0,2.5.06,3.11,0,.38.15.6.59.66a4.57,4.57,0,0,0,.75.05c.16,0,.23.09.23.15s-.12.15-.28.15c-1,0-2,0-2.37,0s-1.34,0-1.92,0c-.19,0-.29,0-.29-.15s0-.15.24-.15a1.82,1.82,0,0,0,.51-.05c.3-.06.39-.26.44-.68.06-.59.06-1.72.06-3.09Z" fill="#fff"/><path d="M191.3,3l-2.19,0c-.85,0-1.2.12-1.42.43a1.59,1.59,0,0,0-.25.49c0,.11-.07.18-.17.18s-.13-.08-.13-.23a16.14,16.14,0,0,1,.32-1.72c0-.19.08-.27.16-.27s.27.12.64.17a13.77,13.77,0,0,0,1.47.06h6a7.32,7.32,0,0,0,1-.06l.4-.07c.1,0,.12.08.12.3s0,1.35,0,1.72c0,.15,0,.23-.13.23s-.15-.06-.17-.28V3.84c0-.37-.42-.8-1.74-.82l-1.85,0V8.73c0,1.3,0,2.42.08,3,.05.4.13.67.57.73a4.57,4.57,0,0,0,.75.05c.17,0,.23.09.23.15s-.11.15-.28.15c-1,0-2,0-2.37,0s-1.34,0-1.92,0c-.18,0-.29,0-.29-.15s.06-.15.24-.15a1.82,1.82,0,0,0,.52-.05c.3-.06.38-.33.43-.75.07-.6.07-1.72.07-3Z" fill="#fff"/><path d="M199.21,6.23c0-2.16,0-2.56,0-3s-.17-.63-.64-.77A2.86,2.86,0,0,0,198,2.4c-.16,0-.25,0-.25-.15s.1-.13.32-.13c.79,0,1.77,0,2.2,0l1.89,0c.22,0,.32,0,.32.13s-.09.15-.24.15a2.27,2.27,0,0,0-.43.05c-.38.07-.5.27-.53.77s0,.85,0,3v2c0,2.07.4,2.87,1.12,3.44a2.81,2.81,0,0,0,1.85.57,2.77,2.77,0,0,0,2-.75c.82-.77.86-2,.86-3.46V6.23c0-2.16,0-2.56,0-3s-.15-.63-.62-.77a2.65,2.65,0,0,0-.53-.05c-.17,0-.25,0-.25-.15s.1-.13.3-.13c.75,0,1.74,0,1.75,0l1.72,0c.2,0,.3,0,.3.13s-.08.15-.25.15a2.18,2.18,0,0,0-.43.05c-.4.07-.5.27-.54.77s0,.85,0,3V7.75c0,1.58-.17,3.25-1.4,4.27a4.58,4.58,0,0,1-3.11,1,5.11,5.11,0,0,1-3.35-1c-.75-.65-1.34-1.7-1.34-3.76Z" fill="#fff"/><path d="M214.42,3l-2.18,0c-.86,0-1.21.12-1.42.43a1.59,1.59,0,0,0-.25.49c0,.11-.07.18-.17.18s-.13-.08-.13-.23.28-1.61.31-1.72.09-.27.17-.27.27.12.63.17a14,14,0,0,0,1.47.06h6a7.09,7.09,0,0,0,1-.06l.4-.07c.11,0,.12.08.12.3s0,1.35,0,1.72c0,.15-.05.23-.14.23S220,4.21,220,4l0-.15c0-.37-.42-.8-1.74-.82l-1.85,0V8.73c0,1.3,0,2.42.09,3,.05.4.13.67.56.73a4.65,4.65,0,0,0,.75.05c.17,0,.24.09.24.15s-.12.15-.29.15c-1,0-2,0-2.37,0s-1.33,0-1.92,0c-.18,0-.28,0-.28-.15s.05-.15.23-.15a1.82,1.82,0,0,0,.52-.05c.3-.06.39-.33.44-.75.06-.6.06-1.72.06-3Z" fill="#fff"/><path d="M223,6.23c0-2.16,0-2.56,0-3s-.16-.63-.63-.77a3,3,0,0,0-.58-.05c-.15,0-.25,0-.25-.15s.11-.13.33-.13c.77,0,1.7,0,2.12,0s3.72,0,4,0a4.16,4.16,0,0,0,.61-.08A1.53,1.53,0,0,1,228.8,2c.08,0,.1.07.1.14a5.33,5.33,0,0,0-.12.91c0,.16-.05.77-.08.94s0,.23-.17.23-.12-.06-.12-.18a1.24,1.24,0,0,0-.1-.52c-.11-.25-.23-.45-1-.52-.25,0-2-.06-2.31-.06-.06,0-.1.05-.1.13V6.58c0,.08,0,.15.1.15.34,0,2.24,0,2.57,0a1.16,1.16,0,0,0,.7-.21c.12-.1.17-.19.24-.19s.11.07.11.15,0,.32-.11,1c0,.28-.07.85-.07.95s0,.32-.15.32-.13-.05-.13-.12,0-.33,0-.52-.27-.5-.82-.55c-.27,0-1.94-.06-2.3-.06-.07,0-.09.06-.09.15V8.78c0,.48,0,1.69,0,2.1,0,1,.49,1.19,2,1.19a4.1,4.1,0,0,0,1.38-.18c.37-.17.54-.47.64-1.06,0-.15.06-.21.16-.21s.14.18.14.33a9.91,9.91,0,0,1-.2,1.57c-.1.37-.24.37-.79.37-1.1,0-2,0-2.7-.05s-1.27,0-1.7,0l-.84,0-1,0c-.18,0-.28,0-.28-.15s.05-.15.23-.15a1.86,1.86,0,0,0,.52-.05c.3-.06.39-.33.43-.75.07-.6.07-1.72.07-3Z" fill="#fff"/></svg>